# xmcd
#
# Track frame offsets:
#	150
#	14063
#	29739
#	46617
#	70569
#	86838
#	102889
#	112841
#	131757
#	146327
#	156832
#
# Disc length: 2315 seconds
#
# Revision: 1
# Processed by: cddbd v1.5.2PL0 Copyright (c) Steve Scherf et al.
# Submitted via: audiograbber 1.82.02
#
DISCID=8d09090b
DTITLE=Валерий КОВТУН - Очи Чёрные
DYEAR=2007
DGENRE=Instrumental
TTITLE0=Хернандес
TTITLE1=Пасодоболь
TTITLE2=Кубинский карнавал
TTITLE3=Аве Мария
TTITLE4=Болгарское Хоро
TTITLE5=Чардаш
TTITLE6=Хорошее настроение
TTITLE7=Сиртаки
TTITLE8=Кумпарсита
TTITLE9=Карусель
TTITLE10=Очи чёрные
EXTD=Валерий КОВТУН. 2007 год. Bomba Music. Аккордеон and аранжировка.
EXTT0=
EXTT1=
EXTT2=
EXTT3=
EXTT4=
EXTT5=
EXTT6=
EXTT7=
EXTT8=
EXTT9=
EXTT10=
PLAYORDER=
